<mxfile host="65bd71144e" pages="3">
    <diagram id="xpqtqhDFAHJONOQXKWAr" name="Page-2">
        <mxGraphModel dx="1819" dy="927" grid="1" gridSize="10" guides="1" tooltips="1" connect="1" arrows="1" fold="1" page="1" pageScale="1" pageWidth="850" pageHeight="1100" math="0" shadow="0">
            <root>
                <mxCell id="0"/>
                <mxCell id="1" parent="0"/>
                <mxCell id="eVLgRbJ7molbJ6r9GQD8-2" value="Wire Frame" style="rounded=0;whiteSpace=wrap;html=1;" parent="1" vertex="1">
                    <mxGeometry x="40" y="40" width="120" height="40" as="geometry"/>
                </mxCell>
                <mxCell id="eVLgRbJ7molbJ6r9GQD8-100" style="edgeStyle=orthogonalEdgeStyle;rounded=0;orthogonalLoop=1;jettySize=auto;html=1;exitX=0.75;exitY=1;exitDx=0;exitDy=0;entryX=0.5;entryY=0;entryDx=0;entryDy=0;" parent="1" source="eVLgRbJ7molbJ6r9GQD8-4" target="eVLgRbJ7molbJ6r9GQD8-99" edge="1">
                    <mxGeometry relative="1" as="geometry"/>
                </mxCell>
                <mxCell id="eVLgRbJ7molbJ6r9GQD8-4" value="Home Screen" style="swimlane;whiteSpace=wrap;html=1;" parent="1" vertex="1">
                    <mxGeometry x="40" y="90" width="760" height="710" as="geometry">
                        <mxRectangle x="40" y="90" width="120" height="30" as="alternateBounds"/>
                    </mxGeometry>
                </mxCell>
                <mxCell id="eVLgRbJ7molbJ6r9GQD8-5" value="" style="rounded=1;whiteSpace=wrap;html=1;align=left;" parent="eVLgRbJ7molbJ6r9GQD8-4" vertex="1">
                    <mxGeometry y="20" width="760" height="50" as="geometry"/>
                </mxCell>
                <mxCell id="eVLgRbJ7molbJ6r9GQD8-7" value="" style="shape=image;html=1;verticalAlign=top;verticalLabelPosition=bottom;labelBackgroundColor=#ffffff;imageAspect=0;aspect=fixed;image=https://cdn2.iconfinder.com/data/icons/boxicons-solid-vol-1/24/bxs-brain-128.png" parent="eVLgRbJ7molbJ6r9GQD8-4" vertex="1">
                    <mxGeometry x="10" y="25" width="40" height="40" as="geometry"/>
                </mxCell>
                <mxCell id="eVLgRbJ7molbJ6r9GQD8-8" value="Home" style="rounded=1;whiteSpace=wrap;html=1;" parent="eVLgRbJ7molbJ6r9GQD8-4" vertex="1">
                    <mxGeometry x="90" y="25" width="120" height="40" as="geometry"/>
                </mxCell>
                <mxCell id="eVLgRbJ7molbJ6r9GQD8-9" value="FLOW" style="rounded=1;whiteSpace=wrap;html=1;" parent="eVLgRbJ7molbJ6r9GQD8-4" vertex="1">
                    <mxGeometry x="230" y="25" width="120" height="40" as="geometry"/>
                </mxCell>
                <mxCell id="eVLgRbJ7molbJ6r9GQD8-10" value="Login/Logout" style="rounded=1;whiteSpace=wrap;html=1;" parent="eVLgRbJ7molbJ6r9GQD8-4" vertex="1">
                    <mxGeometry x="630" y="25" width="120" height="40" as="geometry"/>
                </mxCell>
                <mxCell id="eVLgRbJ7molbJ6r9GQD8-12" value="Flows" style="rounded=0;whiteSpace=wrap;html=1;align=left;" parent="eVLgRbJ7molbJ6r9GQD8-4" vertex="1">
                    <mxGeometry y="70" width="240" height="40" as="geometry"/>
                </mxCell>
                <mxCell id="eVLgRbJ7molbJ6r9GQD8-13" value="Sessions" style="rounded=0;whiteSpace=wrap;html=1;align=left;" parent="eVLgRbJ7molbJ6r9GQD8-4" vertex="1">
                    <mxGeometry y="200" width="240" height="40" as="geometry"/>
                </mxCell>
                <mxCell id="eVLgRbJ7molbJ6r9GQD8-14" value="Agents" style="rounded=0;whiteSpace=wrap;html=1;align=left;" parent="eVLgRbJ7molbJ6r9GQD8-4" vertex="1">
                    <mxGeometry y="250" width="240" height="40" as="geometry"/>
                </mxCell>
                <mxCell id="eVLgRbJ7molbJ6r9GQD8-15" value="Templates" style="rounded=0;whiteSpace=wrap;html=1;align=left;" parent="eVLgRbJ7molbJ6r9GQD8-4" vertex="1">
                    <mxGeometry y="350" width="240" height="40" as="geometry"/>
                </mxCell>
                <mxCell id="eVLgRbJ7molbJ6r9GQD8-16" value="Sources" style="rounded=0;whiteSpace=wrap;html=1;align=left;" parent="eVLgRbJ7molbJ6r9GQD8-4" vertex="1">
                    <mxGeometry y="300" width="240" height="40" as="geometry"/>
                </mxCell>
                <mxCell id="eVLgRbJ7molbJ6r9GQD8-17" value="QUICK ACTIONS" style="rounded=1;whiteSpace=wrap;html=1;" parent="eVLgRbJ7molbJ6r9GQD8-4" vertex="1">
                    <mxGeometry y="110" width="240" height="90" as="geometry"/>
                </mxCell>
                <mxCell id="eVLgRbJ7molbJ6r9GQD8-18" value="TITLE&lt;br&gt;------------&lt;br&gt;Preview&lt;br&gt;------------" style="rounded=1;whiteSpace=wrap;html=1;align=left;" parent="eVLgRbJ7molbJ6r9GQD8-4" vertex="1">
                    <mxGeometry x="280" y="110" width="120" height="80" as="geometry"/>
                </mxCell>
                <mxCell id="eVLgRbJ7molbJ6r9GQD8-19" value="F" style="rounded=1;whiteSpace=wrap;html=1;" parent="eVLgRbJ7molbJ6r9GQD8-4" vertex="1">
                    <mxGeometry x="440" y="110" width="120" height="80" as="geometry"/>
                </mxCell>
                <mxCell id="eVLgRbJ7molbJ6r9GQD8-20" value="F" style="rounded=1;whiteSpace=wrap;html=1;" parent="eVLgRbJ7molbJ6r9GQD8-4" vertex="1">
                    <mxGeometry x="600" y="110" width="120" height="80" as="geometry"/>
                </mxCell>
                <mxCell id="eVLgRbJ7molbJ6r9GQD8-21" value="F" style="rounded=1;whiteSpace=wrap;html=1;" parent="eVLgRbJ7molbJ6r9GQD8-4" vertex="1">
                    <mxGeometry x="280" y="230" width="120" height="80" as="geometry"/>
                </mxCell>
                <mxCell id="eVLgRbJ7molbJ6r9GQD8-22" value="F" style="rounded=1;whiteSpace=wrap;html=1;" parent="eVLgRbJ7molbJ6r9GQD8-4" vertex="1">
                    <mxGeometry x="440" y="230" width="120" height="80" as="geometry"/>
                </mxCell>
                <mxCell id="eVLgRbJ7molbJ6r9GQD8-28" value="F" style="rounded=1;whiteSpace=wrap;html=1;" parent="eVLgRbJ7molbJ6r9GQD8-4" vertex="1">
                    <mxGeometry x="600" y="230" width="120" height="80" as="geometry"/>
                </mxCell>
                <mxCell id="eVLgRbJ7molbJ6r9GQD8-30" value="F" style="rounded=1;whiteSpace=wrap;html=1;" parent="eVLgRbJ7molbJ6r9GQD8-4" vertex="1">
                    <mxGeometry x="280" y="350" width="120" height="80" as="geometry"/>
                </mxCell>
                <mxCell id="eVLgRbJ7molbJ6r9GQD8-31" value="F" style="rounded=1;whiteSpace=wrap;html=1;" parent="eVLgRbJ7molbJ6r9GQD8-4" vertex="1">
                    <mxGeometry x="440" y="350" width="120" height="80" as="geometry"/>
                </mxCell>
                <mxCell id="eVLgRbJ7molbJ6r9GQD8-32" value="F" style="rounded=1;whiteSpace=wrap;html=1;" parent="eVLgRbJ7molbJ6r9GQD8-4" vertex="1">
                    <mxGeometry x="600" y="350" width="120" height="80" as="geometry"/>
                </mxCell>
                <mxCell id="eVLgRbJ7molbJ6r9GQD8-33" value="F" style="rounded=1;whiteSpace=wrap;html=1;" parent="eVLgRbJ7molbJ6r9GQD8-4" vertex="1">
                    <mxGeometry x="280" y="470" width="120" height="80" as="geometry"/>
                </mxCell>
                <mxCell id="eVLgRbJ7molbJ6r9GQD8-34" value="F" style="rounded=1;whiteSpace=wrap;html=1;" parent="eVLgRbJ7molbJ6r9GQD8-4" vertex="1">
                    <mxGeometry x="440" y="470" width="120" height="80" as="geometry"/>
                </mxCell>
                <mxCell id="eVLgRbJ7molbJ6r9GQD8-35" value="F" style="rounded=1;whiteSpace=wrap;html=1;" parent="eVLgRbJ7molbJ6r9GQD8-4" vertex="1">
                    <mxGeometry x="600" y="470" width="120" height="80" as="geometry"/>
                </mxCell>
                <mxCell id="eVLgRbJ7molbJ6r9GQD8-36" value="Ordered by relevance" style="rounded=0;whiteSpace=wrap;html=1;" parent="eVLgRbJ7molbJ6r9GQD8-4" vertex="1">
                    <mxGeometry x="280" y="70" width="120" height="30" as="geometry"/>
                </mxCell>
                <mxCell id="eVLgRbJ7molbJ6r9GQD8-37" value="F" style="rounded=1;whiteSpace=wrap;html=1;" parent="eVLgRbJ7molbJ6r9GQD8-4" vertex="1">
                    <mxGeometry x="280" y="590" width="120" height="80" as="geometry"/>
                </mxCell>
                <mxCell id="eVLgRbJ7molbJ6r9GQD8-38" value="F" style="rounded=1;whiteSpace=wrap;html=1;" parent="eVLgRbJ7molbJ6r9GQD8-4" vertex="1">
                    <mxGeometry x="440" y="590" width="120" height="80" as="geometry"/>
                </mxCell>
                <mxCell id="eVLgRbJ7molbJ6r9GQD8-39" value="F" style="rounded=1;whiteSpace=wrap;html=1;" parent="eVLgRbJ7molbJ6r9GQD8-4" vertex="1">
                    <mxGeometry x="600" y="590" width="120" height="80" as="geometry"/>
                </mxCell>
                <mxCell id="eVLgRbJ7molbJ6r9GQD8-41" value="" style="endArrow=none;html=1;rounded=0;entryX=0.25;entryY=0;entryDx=0;entryDy=0;" parent="eVLgRbJ7molbJ6r9GQD8-4" edge="1">
                    <mxGeometry width="50" height="50" relative="1" as="geometry">
                        <mxPoint x="70" y="20" as="sourcePoint"/>
                        <mxPoint x="70" y="70" as="targetPoint"/>
                    </mxGeometry>
                </mxCell>
                <mxCell id="eVLgRbJ7molbJ6r9GQD8-42" value="Wire Frame" style="rounded=0;whiteSpace=wrap;html=1;" parent="1" vertex="1">
                    <mxGeometry x="40" y="1160" width="120" height="40" as="geometry"/>
                </mxCell>
                <mxCell id="eVLgRbJ7molbJ6r9GQD8-43" value="Home Screen" style="swimlane;whiteSpace=wrap;html=1;" parent="1" vertex="1">
                    <mxGeometry x="40" y="1210" width="760" height="710" as="geometry">
                        <mxRectangle x="40" y="90" width="120" height="30" as="alternateBounds"/>
                    </mxGeometry>
                </mxCell>
                <mxCell id="eVLgRbJ7molbJ6r9GQD8-44" value="" style="rounded=1;whiteSpace=wrap;html=1;align=left;" parent="eVLgRbJ7molbJ6r9GQD8-43" vertex="1">
                    <mxGeometry y="20" width="760" height="50" as="geometry"/>
                </mxCell>
                <mxCell id="eVLgRbJ7molbJ6r9GQD8-45" value="" style="shape=image;html=1;verticalAlign=top;verticalLabelPosition=bottom;labelBackgroundColor=#ffffff;imageAspect=0;aspect=fixed;image=https://cdn2.iconfinder.com/data/icons/boxicons-solid-vol-1/24/bxs-brain-128.png" parent="eVLgRbJ7molbJ6r9GQD8-43" vertex="1">
                    <mxGeometry x="10" y="25" width="40" height="40" as="geometry"/>
                </mxCell>
                <mxCell id="eVLgRbJ7molbJ6r9GQD8-46" value="Home" style="rounded=1;whiteSpace=wrap;html=1;" parent="eVLgRbJ7molbJ6r9GQD8-43" vertex="1">
                    <mxGeometry x="90" y="25" width="120" height="40" as="geometry"/>
                </mxCell>
                <mxCell id="eVLgRbJ7molbJ6r9GQD8-47" value="FLOW" style="rounded=1;whiteSpace=wrap;html=1;" parent="eVLgRbJ7molbJ6r9GQD8-43" vertex="1">
                    <mxGeometry x="230" y="25" width="120" height="40" as="geometry"/>
                </mxCell>
                <mxCell id="eVLgRbJ7molbJ6r9GQD8-49" value="" style="rounded=1;whiteSpace=wrap;html=1;" parent="eVLgRbJ7molbJ6r9GQD8-43" vertex="1">
                    <mxGeometry y="70" width="280" height="640" as="geometry"/>
                </mxCell>
                <mxCell id="eVLgRbJ7molbJ6r9GQD8-50" value="Flows" style="rounded=0;whiteSpace=wrap;html=1;" parent="eVLgRbJ7molbJ6r9GQD8-43" vertex="1">
                    <mxGeometry x="30" y="100" width="220" height="40" as="geometry"/>
                </mxCell>
                <mxCell id="eVLgRbJ7molbJ6r9GQD8-51" value="Sessions" style="rounded=0;whiteSpace=wrap;html=1;" parent="eVLgRbJ7molbJ6r9GQD8-43" vertex="1">
                    <mxGeometry x="30" y="150" width="220" height="40" as="geometry"/>
                </mxCell>
                <mxCell id="eVLgRbJ7molbJ6r9GQD8-52" value="Agents" style="rounded=0;whiteSpace=wrap;html=1;" parent="eVLgRbJ7molbJ6r9GQD8-43" vertex="1">
                    <mxGeometry x="30" y="280" width="220" height="40" as="geometry"/>
                </mxCell>
                <mxCell id="eVLgRbJ7molbJ6r9GQD8-53" value="Templates" style="rounded=0;whiteSpace=wrap;html=1;" parent="eVLgRbJ7molbJ6r9GQD8-43" vertex="1">
                    <mxGeometry x="30" y="380" width="220" height="40" as="geometry"/>
                </mxCell>
                <mxCell id="eVLgRbJ7molbJ6r9GQD8-54" value="Sources" style="rounded=0;whiteSpace=wrap;html=1;" parent="eVLgRbJ7molbJ6r9GQD8-43" vertex="1">
                    <mxGeometry x="30" y="330" width="220" height="40" as="geometry"/>
                </mxCell>
                <mxCell id="eVLgRbJ7molbJ6r9GQD8-55" value="QUICK ACTIONS" style="rounded=1;whiteSpace=wrap;html=1;" parent="eVLgRbJ7molbJ6r9GQD8-43" vertex="1">
                    <mxGeometry x="30" y="190" width="220" height="90" as="geometry"/>
                </mxCell>
                <mxCell id="eVLgRbJ7molbJ6r9GQD8-72" value="" style="endArrow=none;html=1;rounded=0;entryX=0.25;entryY=0;entryDx=0;entryDy=0;" parent="eVLgRbJ7molbJ6r9GQD8-43" target="eVLgRbJ7molbJ6r9GQD8-49" edge="1">
                    <mxGeometry width="50" height="50" relative="1" as="geometry">
                        <mxPoint x="70" y="20" as="sourcePoint"/>
                        <mxPoint x="410" y="320" as="targetPoint"/>
                    </mxGeometry>
                </mxCell>
                <mxCell id="eVLgRbJ7molbJ6r9GQD8-73" value="" style="rounded=1;whiteSpace=wrap;html=1;" parent="eVLgRbJ7molbJ6r9GQD8-43" vertex="1">
                    <mxGeometry x="290" y="80" width="460" height="620" as="geometry"/>
                </mxCell>
                <mxCell id="eVLgRbJ7molbJ6r9GQD8-74" value="" style="endArrow=none;html=1;rounded=0;exitX=-0.004;exitY=0.844;exitDx=0;exitDy=0;exitPerimeter=0;entryX=0.998;entryY=0.844;entryDx=0;entryDy=0;entryPerimeter=0;" parent="eVLgRbJ7molbJ6r9GQD8-43" source="eVLgRbJ7molbJ6r9GQD8-73" target="eVLgRbJ7molbJ6r9GQD8-73" edge="1">
                    <mxGeometry width="50" height="50" relative="1" as="geometry">
                        <mxPoint x="360" y="400" as="sourcePoint"/>
                        <mxPoint x="410" y="350" as="targetPoint"/>
                    </mxGeometry>
                </mxCell>
                <mxCell id="eVLgRbJ7molbJ6r9GQD8-75" value="" style="html=1;verticalLabelPosition=bottom;align=center;labelBackgroundColor=#ffffff;verticalAlign=top;strokeWidth=2;strokeColor=#000000;shadow=0;dashed=0;shape=mxgraph.ios7.icons.pointer;" parent="eVLgRbJ7molbJ6r9GQD8-43" vertex="1">
                    <mxGeometry x="675" y="640" width="30" height="30" as="geometry"/>
                </mxCell>
                <mxCell id="eVLgRbJ7molbJ6r9GQD8-78" value="Dynamic Input Based on Type" style="rounded=1;whiteSpace=wrap;html=1;" parent="eVLgRbJ7molbJ6r9GQD8-43" vertex="1">
                    <mxGeometry x="350" y="625" width="310" height="60" as="geometry"/>
                </mxCell>
                <mxCell id="eVLgRbJ7molbJ6r9GQD8-80" value="Output" style="rounded=1;whiteSpace=wrap;html=1;fillColor=#f8cecc;strokeColor=#b85450;" parent="eVLgRbJ7molbJ6r9GQD8-43" vertex="1">
                    <mxGeometry x="330" y="190" width="170" height="80" as="geometry"/>
                </mxCell>
                <mxCell id="eVLgRbJ7molbJ6r9GQD8-81" value="User Message" style="rounded=1;whiteSpace=wrap;html=1;fillColor=#d5e8d4;strokeColor=#82b366;" parent="eVLgRbJ7molbJ6r9GQD8-43" vertex="1">
                    <mxGeometry x="535" y="100" width="170" height="80" as="geometry"/>
                </mxCell>
                <mxCell id="eVLgRbJ7molbJ6r9GQD8-82" value="&lt;hr&gt;" style="rounded=0;whiteSpace=wrap;html=1;" parent="eVLgRbJ7molbJ6r9GQD8-43" vertex="1">
                    <mxGeometry x="330" y="270" width="170" height="240" as="geometry"/>
                </mxCell>
                <mxCell id="eVLgRbJ7molbJ6r9GQD8-83" value="Output A" style="rounded=1;whiteSpace=wrap;html=1;" parent="eVLgRbJ7molbJ6r9GQD8-43" vertex="1">
                    <mxGeometry x="330" y="270" width="170" height="50" as="geometry"/>
                </mxCell>
                <mxCell id="eVLgRbJ7molbJ6r9GQD8-84" value="Output B" style="rounded=1;whiteSpace=wrap;html=1;" parent="eVLgRbJ7molbJ6r9GQD8-43" vertex="1">
                    <mxGeometry x="330" y="320" width="170" height="50" as="geometry"/>
                </mxCell>
                <mxCell id="eVLgRbJ7molbJ6r9GQD8-85" value="Output C" style="rounded=1;whiteSpace=wrap;html=1;" parent="eVLgRbJ7molbJ6r9GQD8-43" vertex="1">
                    <mxGeometry x="330" y="370" width="170" height="50" as="geometry"/>
                </mxCell>
                <mxCell id="eVLgRbJ7molbJ6r9GQD8-87" value="" style="triangle;whiteSpace=wrap;html=1;direction=south;" parent="eVLgRbJ7molbJ6r9GQD8-43" vertex="1">
                    <mxGeometry x="460" y="390" width="20" height="10" as="geometry"/>
                </mxCell>
                <mxCell id="eVLgRbJ7molbJ6r9GQD8-94" value="Output From Agent C" style="rounded=0;whiteSpace=wrap;html=1;" parent="eVLgRbJ7molbJ6r9GQD8-43" vertex="1">
                    <mxGeometry x="330" y="420" width="170" height="90" as="geometry"/>
                </mxCell>
                <mxCell id="eVLgRbJ7molbJ6r9GQD8-95" value="" style="triangle;whiteSpace=wrap;html=1;direction=east;" parent="eVLgRbJ7molbJ6r9GQD8-43" vertex="1">
                    <mxGeometry x="465" y="335" width="10" height="20" as="geometry"/>
                </mxCell>
                <mxCell id="eVLgRbJ7molbJ6r9GQD8-96" value="" style="triangle;whiteSpace=wrap;html=1;direction=east;" parent="eVLgRbJ7molbJ6r9GQD8-43" vertex="1">
                    <mxGeometry x="465" y="285" width="10" height="20" as="geometry"/>
                </mxCell>
                <mxCell id="eVLgRbJ7molbJ6r9GQD8-98" style="edgeStyle=orthogonalEdgeStyle;rounded=0;orthogonalLoop=1;jettySize=auto;html=1;exitX=0.5;exitY=0;exitDx=0;exitDy=0;entryX=0.5;entryY=1;entryDx=0;entryDy=0;" parent="1" source="eVLgRbJ7molbJ6r9GQD8-97" edge="1">
                    <mxGeometry relative="1" as="geometry">
                        <mxPoint x="180" y="800" as="targetPoint"/>
                    </mxGeometry>
                </mxCell>
                <mxCell id="eVLgRbJ7molbJ6r9GQD8-97" value="Constant" style="text;html=1;strokeColor=none;fillColor=none;align=center;verticalAlign=middle;whiteSpace=wrap;rounded=0;" parent="1" vertex="1">
                    <mxGeometry x="150" y="850" width="60" height="30" as="geometry"/>
                </mxCell>
                <mxCell id="eVLgRbJ7molbJ6r9GQD8-99" value="Dynamic" style="text;html=1;strokeColor=none;fillColor=none;align=center;verticalAlign=middle;whiteSpace=wrap;rounded=0;" parent="1" vertex="1">
                    <mxGeometry x="580" y="890" width="60" height="30" as="geometry"/>
                </mxCell>
                <mxCell id="2" value="" style="html=1;verticalLabelPosition=bottom;align=center;labelBackgroundColor=#ffffff;verticalAlign=top;strokeWidth=2;strokeColor=#0080F0;shadow=0;dashed=0;shape=mxgraph.ios7.icons.user;" vertex="1" parent="1">
                    <mxGeometry x="760" y="1240" width="30" height="30" as="geometry"/>
                </mxCell>
                <mxCell id="50" value="" style="html=1;shadow=0;dashed=0;shape=mxgraph.bootstrap.rrect;rSize=5;fillColor=#ffffff;strokeColor=#999999;" vertex="1" parent="1">
                    <mxGeometry x="760" y="1280" width="170" height="150" as="geometry"/>
                </mxCell>
                <mxCell id="51" value="Profile" style="fillColor=none;strokeColor=none;align=left;spacing=20;fontSize=14;fontColor=#000000;" vertex="1" parent="50">
                    <mxGeometry width="170" height="30" relative="1" as="geometry">
                        <mxPoint y="10" as="offset"/>
                    </mxGeometry>
                </mxCell>
                <mxCell id="52" value="Settings" style="fillColor=none;strokeColor=none;align=left;spacing=20;fontSize=14;fontColor=#000000;" vertex="1" parent="50">
                    <mxGeometry width="170" height="30" relative="1" as="geometry">
                        <mxPoint y="40" as="offset"/>
                    </mxGeometry>
                </mxCell>
                <mxCell id="53" value="Help" style="fillColor=none;strokeColor=none;align=left;spacing=20;fontSize=14;fontColor=#000000;" vertex="1" parent="50">
                    <mxGeometry width="170" height="30" relative="1" as="geometry">
                        <mxPoint y="70" as="offset"/>
                    </mxGeometry>
                </mxCell>
                <mxCell id="54" value="" style="shape=line;strokeColor=#999999;perimeter=none;resizeWidth=1;" vertex="1" parent="50">
                    <mxGeometry width="170" height="10" relative="1" as="geometry">
                        <mxPoint y="100" as="offset"/>
                    </mxGeometry>
                </mxCell>
                <mxCell id="55" value="Logout" style="fillColor=none;strokeColor=none;align=left;spacing=20;fontSize=14;fontColor=#000000;" vertex="1" parent="50">
                    <mxGeometry width="170" height="30" relative="1" as="geometry">
                        <mxPoint y="110" as="offset"/>
                    </mxGeometry>
                </mxCell>
            </root>
        </mxGraphModel>
    </diagram>
    <diagram id="6SEeY4Vdv8REBH1c2hb8" name="Page-3">
        <mxGraphModel dx="1434" dy="828" grid="1" gridSize="10" guides="1" tooltips="1" connect="1" arrows="1" fold="1" page="1" pageScale="1" pageWidth="850" pageHeight="1100" math="0" shadow="0">
            <root>
                <mxCell id="0"/>
                <mxCell id="1" parent="0"/>
            </root>
        </mxGraphModel>
    </diagram>
</mxfile>